HIERARCHY
ROOT Hips
{
  OFFSET 4.83823 102.271 -5.36879
  CHANNELS 6 Xposition Yposition Zposition Zrotation Xrotation Yrotation
  JOINT RightUpLeg
  {
    OFFSET -8.9458 -8.66707 0.101652
    CHANNELS 3 Zrotation Xrotation Yrotation
    JOINT RightLeg
    {
      OFFSET 0 -44.4227 1.3727
      CHANNELS 3 Zrotation Xrotation Yrotation
      JOINT RightFoot
      {
        OFFSET 0.253549 -42.0924 -1.46059
        CHANNELS 3 Zrotation Xrotation Yrotation
        JOINT RightToes
        {
          OFFSET 0.04 -4.41509 8.4991
          CHANNELS 3 Zrotation Xrotation Yrotation
          End Site
          {
            OFFSET -0.08 -0.137448 9.77979
          }
        }
      }
    }
  }
  JOINT Spine
  {
    OFFSET 0 11.8905 0
    CHANNELS 3 Zrotation Xrotation Yrotation
    JOINT Spine1
    {
      OFFSET 0 25.6574 0.127663
      CHANNELS 3 Zrotation Xrotation Yrotation
      JOINT HEad
      {
        OFFSET 0 8.73416 0.011341
        CHANNELS 3 Zrotation Xrotation Yrotation
        End Site
        {
          OFFSET -0.29 12.7742 2.51395
        }
      }
      JOINT LeftShoulder1
      {
        OFFSET 8.99 -0.362252 -0.22
        CHANNELS 3 Zrotation Xrotation Yrotation
        JOINT LeftArm
        {
          OFFSET 10.2827 -0.00337999 0.322123
          CHANNELS 3 Zrotation Xrotation Yrotation
          JOINT LeftForeArm
          {
            OFFSET 26.2597 0.099144 -1.42434
            CHANNELS 3 Zrotation Xrotation Yrotation
            JOINT LeftHand
            {
              OFFSET 22.0902 0.085362 1.02216
              CHANNELS 3 Zrotation Xrotation Yrotation
              End Site
              {
                OFFSET 13.419 -0.6 1.50291
              }
            }
          }
        }
      }
      JOINT RightShoulder
      {
        OFFSET -8.99 -0.362252 -0.22
        CHANNELS 3 Zrotation Xrotation Yrotation
        JOINT RightArm
        {
          OFFSET -10.2827 -0.00338 0.322123
          CHANNELS 3 Zrotation Xrotation Yrotation
          JOINT RightForeArm
          {
            OFFSET -26.364 0.099144 -1.42434
            CHANNELS 3 Zrotation Xrotation Yrotation
            JOINT RightHand
            {
              OFFSET -22.0324 0.085362 1.02216
              CHANNELS 3 Zrotation Xrotation Yrotation
              End Site
              {
                OFFSET -13.3284 -0.6 1.50291
              }
            }
          }
        }
      }
    }
  }
  JOINT LeftUpLeg
  {
    OFFSET 8.9458 -8.66707 0.101652
    CHANNELS 3 Zrotation Xrotation Yrotation
    JOINT LeftLeg
    {
      OFFSET 0 -44.4227 1.3727
      CHANNELS 3 Zrotation Xrotation Yrotation
      JOINT LeftFoot
      {
        OFFSET -0.253549 -42.0924 -1.46059
        CHANNELS 3 Zrotation Xrotation Yrotation
        JOINT LeftToes
        {
          OFFSET -0.04 -4.41509 8.4991
          CHANNELS 3 Zrotation Xrotation Yrotation
          End Site
          {
            OFFSET 0.08 -0.047448 9.77979
          }
        }
      }
    }
  }
}
MOTION
Frames:	14
Frame Time:	0.0333333
4.83823 102.271 -5.36879 0 0 -0 1.05856 -1.95523 -8.60968 -0.580256 3.81185 13.5567 -1.21626 -1.80234 -0.155426 -2.63227e-018 6.3224e-018 0.662642 -0 0 0.877182 -0 0 1.08 -0 0 13.7106 0 0 -1.03422 0.00171084 0.000494388 -6.38629 -0.00167786 -0.000681308 -7.52932 3.23806e-005 3.96641e-006 -0.50803 -0 0 3.81437 -0.00144921 0.000724798 -1.30758 0.00149097 -0.000698194 1.09097 -2.54684e-005 7.14122e-006 1.57446 -0.881273 0.211127 7.29636 -0.0673267 -0.534166 -3.13435 0.901654 0.262477 0.0777491 1.82356e-023 2.96212e-024 -1.47469e-008 
4.51827 101.981 -5.61949 0.541582 2.86851 -7.06149 0.681352 -4.18839 11.6103 -2.6375 16.6522 14.1461 -6.23299 -12.7057 -18.866 4.64441e-016 3.97569e-016 0.662642 -2.87304 2.04088 1.04054 0.220444 -3.07834 1.1177 3.84025 -9.33511 -3.10617 9.83577e-008 -2.43815e-007 -1.03422 -80.2146 4.22544 -4.27215 10.5931 -3.29665 -25.8476 -1.31889 5.88934 -1.28901 4.43457e-007 -6.44131e-007 3.81437 78.3953 15.5644 3.80227 -12.2614 -4.43345 22.5562 1.55702 20.9065 4.26681 -1.06657 0.910849 1.59956 1.26867 9.66632 -3.49338 4.62117 -12.7459 19.5184 -4.50372e-017 -1.86361e-016 -1.47469e-008 
4.52072 101.982 -5.61743 0.608672 2.80989 -7.05633 0.588136 -4.21138 11.4982 -2.65857 16.7759 14.1532 -6.19971 -12.669 -18.7894 5.3197e-016 1.98785e-016 0.662642 -2.93246 2.17436 1.10376 0.201485 -3.12235 1.13399 3.75378 -9.34204 -3.16726 2.2296e-007 -1.98777e-007 -1.03422 -80.1658 4.25139 -4.35912 10.5544 -3.27748 -25.778 -1.31951 5.89224 -1.28933 3.08949e-007 -5.9007e-008 3.81437 78.4049 15.6114 3.76563 -12.316 -4.4656 22.6574 1.55262 20.8249 4.2569 -1.16665 0.956802 1.64841 1.27277 9.69661 -3.49411 4.60632 -12.7672 19.4465 1.52195e-015 -4.96962e-017 -1.47469e-008 
4.5218 101.983 -5.61528 0.641444 2.75918 -7.05512 0.554069 -4.24078 11.4256 -2.68257 16.9157 14.1621 -6.2006 -12.6968 -18.7369 1.74731e-015 3.97569e-016 0.662642 -2.98233 2.30387 1.1143 0.24204 -3.22858 1.13711 3.67299 -9.29122 -3.12503 -2.4843e-007 1.91781e-007 -1.03422 -80.1615 4.35828 -4.32196 10.5537 -3.27719 -25.7768 -1.29816 5.79419 -1.27745 -3.97611e-008 -4.9898e-008 3.81437 78.3959 15.7304 3.68918 -12.3873 -4.50794 22.7898 1.55081 20.7923 4.25295 -1.20468 1.00934 1.76597 1.26464 9.62675 -3.48756 4.49326 -12.3832 19.3973 -3.72721e-016 4.96962e-017 -1.47469e-008 
4.5416 101.983 -5.61343 0.710921 2.71469 -7.02552 0.472417 -4.25438 11.3696 -2.70541 17.0498 14.171 -6.24233 -12.8058 -18.7158 -6.70943e-016 0 0.662642 -3.0786 2.4256 1.08303 0.278083 -3.23804 1.12779 3.58583 -9.37791 -3.0482 6.92304e-007 -1.31576e-007 -1.03422 -80.1532 4.32902 -4.36981 10.5206 -3.26085 -25.7173 -1.33725 5.97385 -1.29926 2.96436e-007 -1.87713e-007 3.81437 78.3313 15.9686 3.76875 -12.4264 -4.53124 22.8624 1.52828 20.3751 4.20217 -1.28688 1.04544 1.88686 1.25914 9.59593 -3.4839 4.40629 -12.1602 19.284 4.22417e-016 0 -1.47469e-008 
4.55876 101.97 -5.61204 0.779049 2.67688 -7.00829 0.39537 -4.27536 11.3742 -2.72755 17.1784 14.1795 -6.28961 -12.9118 -18.7261 -1.71649e-016 -1.98785e-016 0.662642 -3.15219 2.51989 1.0801 0.260985 -3.23458 1.12519 3.61435 -9.45818 -2.91042 -1.16841e-006 8.73123e-007 -1.03422 -80.1197 4.29898 -4.4247 10.457 -3.22954 -25.6029 -1.41365 6.32579 -1.34167 -9.57951e-007 6.89114e-007 3.81437 78.343 16.0832 3.79421 -12.4921 -4.57036 22.9843 1.51719 20.1723 4.17748 -1.38146 1.04944 1.87272 1.26421 9.63308 -3.48423 4.39197 -12.1043 19.2918 -1.06847e-015 1.98785e-016 -1.47469e-008 
4.57125 101.959 -5.64048 0.783547 2.66413 -7.03294 0.411209 -4.34958 11.4484 -2.7511 17.3159 14.1881 -6.32159 -12.9708 -18.7557 5.28057e-016 0 0.662642 -3.15516 2.61374 1.15685 0.254928 -3.25158 1.1462 3.63722 -9.51381 -2.80321 3.51944e-007 -6.11638e-007 -1.03422 -80.0652 4.35451 -4.52968 10.3935 -3.19839 -25.4885 -1.44549 6.47265 -1.35923 2.9389e-007 -4.02708e-007 3.81437 78.3532 16.2798 3.76472 -12.5886 -4.62833 23.1636 1.49582 19.7859 4.13039 -1.39183 0.971323 1.96438 1.28094 9.75556 -3.48747 4.36748 -12.0796 19.2287 7.20594e-016 1.98785e-016 -1.47469e-008 
4.58507 101.945 -5.6673 0.781189 2.69271 -7.01659 0.425694 -4.45428 11.3939 -2.77411 17.4505 14.1964 -6.32552 -13.02 -18.6953 7.82767e-016 0 0.662642 -3.15176 2.64822 1.16311 0.307243 -3.21298 1.14914 3.541 -9.55309 -2.69351 3.04771e-007 -3.386e-007 -1.03422 -80.0749 4.30345 -4.64865 10.3568 -3.18066 -25.4228 -1.48904 6.67413 -1.38319 5.47736e-008 -5.0602e-007 3.81437 78.2822 16.7943 3.78297 -12.6727 -4.67922 23.3203 1.43819 18.7682 4.00623 -1.37885 0.805032 2.2278 1.31636 10.0149 -3.49757 4.34706 -12.3274 18.9042 1.49089e-015 -9.93923e-017 -1.47469e-008 
4.60048 101.931 -5.72487 0.826113 2.69959 -6.95966 0.392917 -4.56555 11.3311 -2.79919 17.5967 14.2052 -6.34244 -13.0745 -18.6835 3.7436e-016 3.97569e-016 0.662642 -3.23194 2.7772 1.20464 0.265369 -3.24774 1.15833 3.54844 -9.61444 -2.59998 1.29875e-006 -1.16949e-006 -1.03422 -79.974 4.35039 -4.75271 10.3559 -3.18013 -25.4212 -1.54367 6.92691 -1.41306 5.83702e-007 -7.27553e-007 3.81437 78.3022 16.898 3.79615 -12.7191 -4.70736 23.4068 1.41594 18.3851 3.95937 -1.41683 0.564742 2.47713 1.36913 10.3987 -3.51419 4.3619 -12.7974 18.5196 -1.86361e-016 -1.49089e-016 -1.47469e-008 
4.61335 101.914 -5.80372 0.763695 2.72834 -6.8453 0.507038 -4.69153 11.3527 -2.82951 17.773 14.2154 -6.383 -13.1056 -18.8055 -9.35779e-016 -1.98785e-016 0.662642 -3.18504 2.9576 1.19869 0.180065 -3.31264 1.15326 3.64671 -9.74418 -2.43354 -4.29263e-008 -1.03707e-007 -1.03422 -79.8236 4.52508 -4.878 10.3831 -3.19343 -25.4699 -1.5589 6.99762 -1.42139 4.4657e-008 1.16633e-007 3.81437 78.3692 17.0026 3.84063 -12.7981 -4.75559 23.5543 1.40467 18.1921 3.93574 -1.32746 0.246661 2.70934 1.43321 10.8611 -3.53199 4.32594 -13.0724 18.1439 -1.35422e-015 -9.93923e-017 -1.47469e-008 
4.62791 101.893 -5.86645 0.7259 2.79945 -6.70554 0.586481 -4.8713 11.3355 -2.86705 17.9911 14.2286 -6.43697 -13.1737 -18.9184 -8.55017e-016 -1.98785e-016 0.662642 -3.14159 3.07649 1.1411 0.155029 -3.39037 1.13556 3.70731 -9.86316 -2.22798 1.24784e-007 -7.05325e-008 -1.03422 -79.7424 4.79279 -4.94735 10.422 -3.21239 -25.5399 -1.53583 6.89081 -1.40882 3.37153e-008 4.74293e-007 3.81437 78.3952 16.9451 3.8329 -12.9821 -4.86895 23.8983 1.44212 18.8369 4.01462 -1.26543 -0.131656 2.95761 1.50092 11.3459 -3.54938 4.24604 -13.1788 17.7624 -7.20594e-016 1.49089e-016 -1.47469e-008 
4.64376 101.859 -5.92265 0.751499 2.77784 -6.59228 0.57317 -4.97975 11.2076 -2.9078 18.2266 14.2434 -6.47092 -13.2715 -18.9055 -1.05611e-015 0 0.662642 -3.19066 3.30201 1.10617 0.201993 -3.53641 1.12502 3.68875 -9.95724 -2.02476 8.49749e-007 -4.03403e-007 -1.03422 -79.6853 5.03138 -4.98236 10.4102 -3.20658 -25.5185 -1.50767 6.76019 -1.39341 1.19853e-006 -8.1104e-007 3.81437 78.3734 17.1842 3.81556 -13.0432 -4.9069 24.0127 1.39574 18.0407 3.91724 -1.28374 -0.452404 3.27097 1.57864 11.898 -3.56984 4.15981 -13.27 17.3746 1.08089e-015 0 -1.47469e-008 
4.65917 101.82 -5.99004 0.746196 2.79118 -6.47992 0.608066 -5.15577 11.0585 -2.95649 18.507 14.2614 -6.50394 -13.3683 -18.8898 1.47005e-015 1.98785e-016 0.662642 -3.17962 3.47913 1.08362 0.245447 -3.62338 1.11883 3.67278 -10.141 -1.78902 5.75258e-007 -5.97777e-007 -1.03422 -79.6715 4.95488 -5.04884 10.3743 -3.18914 -25.4542 -1.53084 6.86769 -1.40611 -1.24771e-007 7.72624e-007 3.81437 78.3116 17.2995 3.80057 -13.1827 -4.9942 24.2741 1.39133 17.9664 3.90815 -1.25344 -0.834221 3.65516 1.66122 12.4786 -3.5907 4.02907 -13.2031 16.9513 1.14301e-015 -1.98785e-016 -1.47469e-008 
4.6754 101.767 -6.06891 0.59195 2.88607 -6.34047 0.82844 -5.42967 10.9244 -3.01267 18.8296 14.2826 -6.55902 -13.5059 -18.8926 -8.03019e-016 -3.97569e-016 0.662642 -2.95198 3.59253 0.994582 0.212358 -3.70309 1.0937 3.65814 -10.2869 -1.51116 3.63335e-007 -9.27623e-008 -1.03422 -79.6446 4.81562 -5.12298 10.3526 -3.17859 -25.4154 -1.55966 7.00121 -1.42178 6.64847e-007 -4.99881e-007 3.81437 78.2866 17.4736 3.7774 -13.3302 -5.08749 24.5513 1.38431 17.8481 3.89367 -1.04282 -1.34445 4.02127 1.75156 13.1096 -3.6141 3.89333 -13.0937 16.5417 -1.04362e-015 -3.97569e-016 -1.47469e-008 
